<svg width="32" height="32" viewBox="0 0 32 32" fill="none" xmlns="http://www.w3.org/2000/svg">
<circle cx="16" cy="16" r="16" fill="black"/>
<path d="M20 11C20 10.7348 20.1054 10.4804 20.2929 10.2929C20.4804 10.1054 20.7348 10 21 10C21.2652 10 21.5196 10.1054 21.7071 10.2929C21.8946 10.4804 22 10.7348 22 11C22 11.2652 21.8946 11.5196 21.7071 11.7071C21.5196 11.8946 21.2652 12 21 12C20.7348 12 20.4804 11.8946 20.2929 11.7071C20.1054 11.5196 20 11.2652 20 11Z" fill="white"/>
<path fill-rule="evenodd" clip-rule="evenodd" d="M16 11.25C14.7402 11.25 13.532 11.7504 12.6412 12.6412C11.7504 13.532 11.25 14.7402 11.25 16C11.25 17.2598 11.7504 18.468 12.6412 19.3588C13.532 20.2496 14.7402 20.75 16 20.75C17.2598 20.75 18.468 20.2496 19.3588 19.3588C20.2496 18.468 20.75 17.2598 20.75 16C20.75 14.7402 20.2496 13.532 19.3588 12.6412C18.468 11.7504 17.2598 11.25 16 11.25ZM12.75 16C12.75 15.138 13.0924 14.3114 13.7019 13.7019C14.3114 13.0924 15.138 12.75 16 12.75C16.862 12.75 17.6886 13.0924 18.2981 13.7019C18.9076 14.3114 19.25 15.138 19.25 16C19.25 16.862 18.9076 17.6886 18.2981 18.2981C17.6886 18.9076 16.862 19.25 16 19.25C15.138 19.25 14.3114 18.9076 13.7019 18.2981C13.0924 17.6886 12.75 16.862 12.75 16Z" fill="white"/>
<path fill-rule="evenodd" clip-rule="evenodd" d="M21.258 6.833C17.7634 6.4456 14.2366 6.4456 10.742 6.833C8.72999 7.058 7.10499 8.643 6.86899 10.665C6.45439 14.2096 6.45439 17.7904 6.86899 21.335C7.10499 23.357 8.72899 24.942 10.742 25.167C14.2366 25.554 17.7633 25.554 21.258 25.167C23.27 24.942 24.895 23.357 25.131 21.335C25.5457 17.7904 25.5457 14.2096 25.131 10.665C24.895 8.643 23.271 7.058 21.258 6.833ZM10.908 8.323C14.2923 7.94788 17.7077 7.94788 21.092 8.323C22.422 8.473 23.487 9.522 23.642 10.84C24.0429 14.2683 24.0429 17.7317 23.642 21.16C23.5618 21.805 23.2665 22.4042 22.8038 22.8608C22.3411 23.3173 21.7381 23.6045 21.092 23.676C17.7077 24.0512 14.2923 24.0512 10.908 23.676C10.2619 23.6045 9.65885 23.3173 9.19615 22.8608C8.73345 22.4042 8.43817 21.805 8.35799 21.16C7.95704 17.7317 7.95704 14.2683 8.35799 10.84C8.43817 10.195 8.73345 9.59578 9.19615 9.13925C9.65885 8.68273 10.2619 8.39451 10.908 8.323Z" fill="white"/>
</svg>
