<svg width="50" height="60" viewBox="0 0 50 60" fill="none" xmlns="http://www.w3.org/2000/svg">
<path d="M25 30C26.1458 30 27.1271 29.51 27.9437 28.53C28.759 27.5517 29.1666 26.375 29.1666 25C29.1666 23.625 28.759 22.4475 27.9437 21.4675C27.1271 20.4892 26.1458 20 25 20C23.8541 20 22.8736 20.4892 22.0583 21.4675C21.2416 22.4475 20.8333 23.625 20.8333 25C20.8333 26.375 21.2416 27.5517 22.0583 28.53C22.8736 29.51 23.8541 30 25 30ZM25 55C19.4097 49.2917 15.2347 43.9892 12.475 39.0925C9.71387 34.1975 8.33331 29.6667 8.33331 25.5C8.33331 19.25 10.009 14.2708 13.3604 10.5625C16.7104 6.85417 20.5903 5 25 5C29.4097 5 33.2896 6.85417 36.6396 10.5625C39.991 14.2708 41.6666 19.25 41.6666 25.5C41.6666 29.6667 40.2868 34.1975 37.5271 39.0925C34.766 43.9892 30.5903 49.2917 25 55Z" fill="black"/>
</svg>
