<svg width="32" height="32" viewBox="0 0 32 32" fill="none" xmlns="http://www.w3.org/2000/svg">
<path d="M16.0234 0C7.17364 0 0 7.156 0 15.9827C0 22.7547 4.22104 28.5387 10.1824 30.8653C10.042 29.6 9.91638 27.6613 10.2372 26.28C10.5299 25.0307 12.1165 18.3373 12.1165 18.3373C12.1165 18.3373 11.6366 17.3773 11.6366 15.9627C11.6366 13.7453 12.9291 12.0813 14.5344 12.0813C15.9031 12.0813 16.5634 13.1067 16.5634 14.332C16.5634 15.704 15.6906 17.7547 15.2375 19.6547C14.8565 21.2453 16.0394 22.5413 17.61 22.5413C20.4543 22.5413 22.6463 19.548 22.6463 15.2253C22.6463 11.4107 19.8889 8.73333 15.9525 8.73333C11.3947 8.73333 8.72278 12.1493 8.72278 15.6653C8.72278 17.0427 9.2494 18.5227 9.91103 19.32C10.0434 19.48 10.0607 19.62 10.0246 19.78C9.90435 20.28 9.63301 21.3787 9.57821 21.5973C9.50737 21.8973 9.34831 21.9587 9.04223 21.8173C7.04398 20.8973 5.79023 17.98 5.79023 15.6227C5.79023 10.588 9.46326 5.95333 16.3763 5.95333C21.9339 5.95333 26.2565 9.90933 26.2565 15.184C26.2565 20.6973 22.772 25.1333 17.9254 25.1333C16.3027 25.1333 14.779 24.2947 14.239 23.2947L13.2379 27.092C12.8783 28.4853 11.8959 30.228 11.2356 31.2867C12.7366 31.7467 14.3179 32 15.9806 32C24.8117 32 32 24.8467 32 16.0173C32 7.18667 24.8117 0.0346667 15.9806 0.0346667L16.0234 0Z" fill="black"/>
</svg>
