<svg width="32" height="32" viewBox="0 0 32 32" fill="none" xmlns="http://www.w3.org/2000/svg">
<circle cx="16" cy="16" r="15.5" fill="black" stroke="black"/>
<rect x="5" y="4" width="22" height="22" fill="black"/>
<mask id="mask0_1_74" style="mask-type:luminance" maskUnits="userSpaceOnUse" x="5" y="6" width="22" height="18">
<path d="M10.071 8.77309C12.6115 8.64659 14.5874 8.58334 15.9991 8.58334C17.4107 8.58334 19.3875 8.64659 21.9295 8.77355C22.5946 8.80675 23.2251 9.08021 23.7039 9.54315C24.1827 10.0061 24.4772 10.627 24.5328 11.2907C24.6492 12.6813 24.7074 13.906 24.7074 14.9652C24.7074 16.0372 24.6478 17.2788 24.5287 18.6905C24.4733 19.3466 24.1845 19.961 23.7146 20.4221C23.2447 20.8833 22.6249 21.1606 21.968 21.2036C19.795 21.3456 17.8054 21.4167 15.9991 21.4167C14.1932 21.4167 12.2041 21.3456 10.0325 21.2036C9.37574 21.1606 8.75616 20.8835 8.28629 20.4227C7.81642 19.9618 7.52743 19.3477 7.47179 18.6919C7.35125 17.2697 7.29075 16.0271 7.29075 14.9652C7.29075 13.9156 7.34987 12.6905 7.46721 11.2893C7.52298 10.6258 7.81759 10.0051 8.29635 9.54234C8.77512 9.07959 9.40552 8.80627 10.0705 8.77309H10.071Z" fill="white" stroke="white" stroke-width="4" stroke-linejoin="round"/>
<path d="M14.625 12.9879V17.0194C14.625 17.0904 14.6442 17.1601 14.6806 17.221C14.717 17.282 14.7693 17.3319 14.8318 17.3656C14.8943 17.3992 14.9648 17.4152 15.0357 17.412C15.1067 17.4087 15.1754 17.3863 15.2346 17.3471L18.2582 15.3488C18.3122 15.3132 18.3566 15.2647 18.3875 15.2078C18.4183 15.1509 18.4345 15.0872 18.4348 15.0225C18.4351 14.9578 18.4193 14.894 18.389 14.8368C18.3587 14.7796 18.3147 14.7308 18.261 14.6948L15.2369 12.6616C15.1778 12.6219 15.109 12.599 15.0379 12.5953C14.9668 12.5917 14.896 12.6074 14.8332 12.6409C14.7703 12.6744 14.7177 12.7243 14.6811 12.7854C14.6444 12.8464 14.625 12.9163 14.625 12.9875V12.9879Z" fill="black" stroke="black" stroke-width="3.429" stroke-linejoin="round"/>
</mask>
<g mask="url(#mask0_1_74)">
<path d="M5 4H27V26H5V4Z" fill="white"/>
</g>
<rect x="5" y="4" width="22" height="22" stroke="white"/>
</svg>
